<svg width="24" height="23" viewBox="0 0 24 23" fill="none" xmlns="http://www.w3.org/2000/svg">
<g clip-path="url(#clip0_583_5419)">
<g clip-path="url(#clip1_583_5419)">
<g clip-path="url(#clip2_583_5419)">
<mask id="mask0_583_5419" style="mask-type:luminance" maskUnits="userSpaceOnUse" x="0" y="0" width="24" height="23">
<path fill-rule="evenodd" clip-rule="evenodd" d="M11.626 7.19144L10.5924 8.18376H12.6596L11.626 7.19144ZM13.7919 5.11204L16.9914 8.18376H21.3811H23.2528L22.8451 10.0106L20.4064 20.9366L20.1446 22.1099H18.9425H4.31038H3.10827L2.84641 20.9366L0.407728 10.0106L0 8.18376H1.87171H6.26067L9.46014 5.11204L7.22011 2.96145L9.29778 0.797363L11.626 3.03264L13.9543 0.797363L16.0319 2.96145L13.7919 5.11204ZM3.74341 11.1838L5.5125 19.1099H17.7403L19.5094 11.1838H3.74341Z" fill="white"/>
</mask>
<g mask="url(#mask0_583_5419)">
<path d="M10.5919 8.18396L9.20684 6.74123L5.62093 10.184H10.5919V8.18396ZM11.6255 7.19164L13.0106 5.74892L11.6255 4.41911L10.2404 5.74892L11.6255 7.19164ZM12.6591 8.18396V10.184H17.6301L14.0442 6.74123L12.6591 8.18396ZM13.7914 5.11224L12.4063 3.66952L10.9036 5.11224L12.4063 6.55496L13.7914 5.11224ZM16.9909 8.18396L15.6058 9.62668L16.1862 10.184H16.9909V8.18396ZM23.2523 8.18396L25.2043 8.61963L25.7479 6.18396H23.2523V8.18396ZM20.1441 22.1101V24.1101H21.7469L22.096 22.5458L20.1441 22.1101ZM3.10779 22.1101L1.15582 22.5458L1.50498 24.1101H3.10779V22.1101ZM-0.000483751 8.18396V6.18396H-2.49609L-1.95245 8.61963L-0.000483751 8.18396ZM6.26019 8.18396V10.184H7.06485L7.64531 9.62668L6.26019 8.18396ZM9.45966 5.11224L10.8448 6.55496L12.3475 5.11224L10.8448 3.66952L9.45966 5.11224ZM7.21963 2.96165L5.77691 1.57654L4.39179 3.01926L5.83451 4.40438L7.21963 2.96165ZM9.2973 0.797564L10.6824 -0.645159L9.2397 -2.03027L7.85458 -0.587552L9.2973 0.797564ZM11.6255 3.03284L10.2404 4.47556L11.6255 5.80537L13.0106 4.47556L11.6255 3.03284ZM13.9538 0.797564L15.3965 -0.587552L14.0114 -2.03027L12.5686 -0.645159L13.9538 0.797564ZM16.0314 2.96165L17.4165 4.40438L18.8593 3.01926L17.4742 1.57654L16.0314 2.96165ZM5.51202 19.1101L3.56005 19.5458L3.9092 21.1101H5.51202V19.1101ZM3.74293 11.184V9.18396H1.24732L1.79096 11.6197L3.74293 11.184ZM17.7398 19.1101V21.1101H19.3427L19.6918 19.5458L17.7398 19.1101ZM19.5089 11.184L21.4609 11.6197L22.0045 9.18396H19.5089V11.184ZM11.9771 9.62668L13.0106 8.63436L10.2404 5.74892L9.20684 6.74123L11.9771 9.62668ZM12.6591 6.18396H10.5919V10.184H12.6591V6.18396ZM14.0442 6.74123L13.0106 5.74892L10.2404 8.63436L11.274 9.62668L14.0442 6.74123ZM12.4063 6.55496L15.6058 9.62668L18.376 6.74123L15.1765 3.66952L12.4063 6.55496ZM21.3806 6.18396H16.9909V10.184H21.3806V6.18396ZM23.2523 6.18396H21.3806V10.184H23.2523V6.18396ZM24.7966 10.4464L25.2043 8.61963L21.3004 7.74828L20.8926 9.57504L24.7966 10.4464ZM22.3579 21.3725L24.7966 10.4464L20.8926 9.57504L18.454 20.5012L22.3579 21.3725ZM22.096 22.5458L22.3579 21.3725L18.454 20.5012L18.1921 21.6744L22.096 22.5458ZM18.942 24.1101H20.1441V20.1101H18.942V24.1101ZM4.3099 24.1101H18.942V20.1101H4.3099V24.1101ZM3.10779 24.1101H4.3099V20.1101H3.10779V24.1101ZM0.893952 21.3725L1.15582 22.5458L5.05976 21.6744L4.7979 20.5012L0.893952 21.3725ZM-1.54472 10.4464L0.893952 21.3725L4.7979 20.5012L2.35922 9.57504L-1.54472 10.4464ZM-1.95245 8.61963L-1.54472 10.4464L2.35922 9.57504L1.95149 7.74828L-1.95245 8.61963ZM1.87123 6.18396H-0.000483751V10.184H1.87123V6.18396ZM6.26019 6.18396H1.87123V10.184H6.26019V6.18396ZM8.07454 3.66952L4.87508 6.74123L7.64531 9.62668L10.8448 6.55496L8.07454 3.66952ZM10.8448 3.66952L8.60475 1.51893L5.83451 4.40438L8.07454 6.55496L10.8448 3.66952ZM8.66235 4.34677L10.74 2.18268L7.85458 -0.587552L5.77691 1.57654L8.66235 4.34677ZM7.91219 2.24029L10.2404 4.47556L13.0106 1.59012L10.6824 -0.645159L7.91219 2.24029ZM12.5686 -0.645159L10.2404 1.59012L13.0106 4.47556L15.3389 2.24029L12.5686 -0.645159ZM17.4742 1.57654L15.3965 -0.587552L12.511 2.18268L14.5887 4.34677L17.4742 1.57654ZM15.1765 6.55496L17.4165 4.40438L14.6463 1.51893L12.4063 3.66952L15.1765 6.55496ZM7.46399 18.6744L5.6949 10.7483L1.79096 11.6197L3.56005 19.5458L7.46399 18.6744ZM17.7398 17.1101H5.51202V21.1101H17.7398V17.1101ZM17.557 10.7483L15.7879 18.6744L19.6918 19.5458L21.4609 11.6197L17.557 10.7483ZM3.74293 13.184H19.5089V9.18396H3.74293V13.184Z" fill="#FF7920"/>
</g>
</g>
</g>
</g>
<defs>
<clipPath id="clip0_583_5419">
<rect width="24" height="23" fill="white"/>
</clipPath>
<clipPath id="clip1_583_5419">
<rect width="24" height="23" fill="white"/>
</clipPath>
<clipPath id="clip2_583_5419">
<rect width="24" height="23" fill="white"/>
</clipPath>
</defs>
</svg>
