<svg width="17" height="17" viewBox="0 0 17 17" fill="none" xmlns="http://www.w3.org/2000/svg">
<g clip-path="url(#clip0_583_5565)">
<path fill-rule="evenodd" clip-rule="evenodd" d="M3.2643 14.5224L3.1875 2.125L13.4815 2.29897L13.5724 12.0256L10.5758 14.875L3.2643 14.5224ZM12.5772 3.13434L4.02914 3.03247L4.17647 13.6697L9.71531 13.9973L9.81248 11.2498L12.6979 11.1824L12.5772 3.13434ZM5.25477 6.83474L11.5067 6.86765L11.4205 7.877L5.29082 7.72027L5.25477 6.83474ZM5.167 4.675L11.6776 4.84584L11.6039 5.72352L5.20775 5.68904L5.167 4.675ZM8.89718 9.70447L5.38172 9.87374L5.33941 8.86753L9.07899 8.81111L8.89718 9.70447Z" fill="#999999" stroke="#999999" stroke-width="0.3"/>
</g>
<defs>
<clipPath id="clip0_583_5565">
<rect width="17" height="17" fill="white"/>
</clipPath>
</defs>
</svg>
