<svg width="240" height="45" viewBox="0 0 240 45" fill="none" xmlns="http://www.w3.org/2000/svg">
<g clip-path="url(#clip0_583_5539)">
<g clip-path="url(#clip1_583_5539)">
<path d="M30 0H0V30H30V0Z" fill="#34C3D9"/>
<path fill-rule="evenodd" clip-rule="evenodd" d="M23.753 10.6812C23.8798 10.2846 23.753 9.99316 23.1496 9.99316H21.1544C20.6471 9.99316 20.4132 10.2449 20.2863 10.5225C20.2863 10.5225 19.2717 12.8425 17.8343 14.3495C17.3693 14.7857 17.1579 14.9245 16.9042 14.9245C16.7774 14.9245 16.5938 14.7857 16.5938 14.3892V10.6812C16.5938 10.2053 16.4466 9.99316 16.0238 9.99316H12.8884C12.5714 9.99316 12.3807 10.2141 12.3807 10.4234C12.3807 10.8745 13.0994 10.9786 13.1734 12.2476V15.0039C13.1734 15.6082 13.0571 15.7177 12.8034 15.7177C12.127 15.7177 10.4817 13.3874 9.50589 10.7208C9.31465 10.2025 9.12284 9.99316 8.61291 9.99316H6.61768C6.04761 9.99316 5.93359 10.2449 5.93359 10.5225C5.93359 11.0182 6.61002 13.477 9.08316 16.729C10.7319 18.9498 13.0549 20.1536 15.1687 20.1536C16.4369 20.1536 16.5938 19.8862 16.5938 19.4257V17.7472C16.5938 17.2124 16.714 17.1057 17.1156 17.1057C17.4115 17.1057 17.9188 17.2445 19.1026 18.3153C20.4554 19.5843 20.6785 20.1536 21.4394 20.1536H23.4346C24.0047 20.1536 24.2897 19.8862 24.1253 19.3586C23.9454 18.8327 23.2995 18.0697 22.4424 17.1652C21.9774 16.6496 21.2798 16.0945 21.0684 15.8168C20.7725 15.4599 20.857 15.3013 21.0684 14.984C21.0684 14.984 23.4993 11.7717 23.753 10.6812Z" fill="white"/>
</g>
</g>
<rect width="30" height="30" transform="translate(40)" fill="#4BEDFF"/>
<g clip-path="url(#clip2_583_5539)">
<g clip-path="url(#clip3_583_5539)">
<path d="M70 0H40V30H70V0Z" fill="#34C3D9"/>
<path d="M48.5677 14.5501C48.5677 14.5501 54.6711 11.9794 56.7879 11.0742C57.5993 10.7122 60.3512 9.55356 60.3512 9.55356C60.3512 9.55356 61.6213 9.0467 61.5154 10.2777C61.4801 10.7846 61.1979 12.5587 60.9156 14.4776C60.4923 17.1932 60.0336 20.1621 60.0336 20.1621C60.0336 20.1621 59.9631 20.9949 59.3633 21.1397C58.7636 21.2845 57.7757 20.6328 57.5993 20.488C57.4582 20.3794 54.9533 18.75 54.0361 17.9535C53.7891 17.7363 53.5069 17.3018 54.0713 16.7949C55.3414 15.6001 56.8584 14.1156 57.7757 13.1742C58.1991 12.7397 58.6224 11.726 56.8584 12.957C54.3536 14.7311 51.884 16.3966 51.884 16.3966C51.884 16.3966 51.3195 16.7587 50.2611 16.4328C49.2027 16.107 47.9679 15.6725 47.9679 15.6725C47.9679 15.6725 47.1213 15.1294 48.5677 14.5501Z" fill="white"/>
</g>
</g>
<rect width="30" height="30" transform="translate(80)" fill="#4BEDFF"/>
<g clip-path="url(#clip4_583_5539)">
<g clip-path="url(#clip5_583_5539)">
<path d="M110 0H80V30H110V0Z" fill="#34C3D9"/>
<path d="M94.2665 7.58243C91.8315 7.86093 89.4052 9.87937 89.3051 12.7627C89.2421 14.5231 89.73 15.8438 91.3652 16.2147C92.0748 14.9321 91.1363 14.6492 90.9903 13.7213C90.3909 9.91895 95.2708 7.32591 97.8245 9.98051C99.5913 11.8187 98.4282 17.4738 95.5784 16.886C92.8487 16.3246 96.9146 11.8231 94.7357 10.9392C92.9646 10.2209 92.0232 13.1365 92.863 14.5847C92.3709 17.0751 91.3108 19.4219 91.74 22.5456C93.132 21.5107 93.6012 19.5289 93.9861 17.4621C94.6857 17.8974 95.059 18.3504 95.9518 18.4207C99.2436 18.6817 101.082 15.0537 100.633 11.7073C100.234 8.74043 97.3438 7.23063 94.2665 7.58243Z" fill="white"/>
</g>
</g>
<rect width="30" height="30" transform="translate(120)" fill="#4BEDFF"/>
<g clip-path="url(#clip6_583_5539)">
<g clip-path="url(#clip7_583_5539)">
<path d="M150 0H120V30H150V0Z" fill="#34C3D9"/>
<path d="M136.815 23H142V13.792L131.63 10.7333V7H128V23H133.185V17.6667H136.815V23Z" fill="white"/>
</g>
</g>
<defs>
<clipPath id="clip0_583_5539">
<rect width="30" height="30" fill="white"/>
</clipPath>
<clipPath id="clip1_583_5539">
<rect width="30" height="30" fill="white"/>
</clipPath>
<clipPath id="clip2_583_5539">
<rect width="30" height="30" fill="white" transform="translate(40)"/>
</clipPath>
<clipPath id="clip3_583_5539">
<rect width="30" height="30" fill="white" transform="translate(40)"/>
</clipPath>
<clipPath id="clip4_583_5539">
<rect width="30" height="30" fill="white" transform="translate(80)"/>
</clipPath>
<clipPath id="clip5_583_5539">
<rect width="30" height="30" fill="white" transform="translate(80)"/>
</clipPath>
<clipPath id="clip6_583_5539">
<rect width="30" height="30" fill="white" transform="translate(120)"/>
</clipPath>
<clipPath id="clip7_583_5539">
<rect width="30" height="30" fill="white" transform="translate(120)"/>
</clipPath>
</defs>
</svg>
